<?xml version="1.0" encoding="iso-8859-1"?>
<!-- Generator: Adobe Illustrator 17.1.0, SVG Export Plug-In . SVG Version: 6.00 Build 0)  -->
<!DOCTYPE svg PUBLIC "-//W3C//DTD SVG 1.1//EN" "http://www.w3.org/Graphics/SVG/1.1/DTD/svg11.dtd">
<svg version="1.1" id="Forma_1_1_" xmlns="http://www.w3.org/2000/svg" xmlns:xlink="http://www.w3.org/1999/xlink" x="0px" y="0px"
	 viewBox="0 0 178 19" style="enable-background:new 0 0 178 19;" xml:space="preserve">
<g id="Forma_1">
	<g>
		<path style="fill:#fff;clip-rule:evenodd;" d="M52.721,2.904l-5.79,15.626h3.04l1.568-4.413h5.511l1.558,4.413h2.986
			L55.891,2.904H52.721z M52.27,11.964l2.052-6.353c0.036,0.135,0.698,2.253,1.987,6.353H52.27z M80.944,11.303
			c1.898-0.654,2.847-2.018,2.847-4.093c0-0.703-0.095-1.313-0.285-1.828c-0.19-0.515-0.448-0.933-0.773-1.252
			c-0.326-0.32-0.752-0.574-1.278-0.762c-0.526-0.188-1.081-0.318-1.665-0.389c-0.584-0.071-1.273-0.107-2.068-0.107h-5.833V18.53
			h2.879v-6.715l2.439,0.021c0.688,0,1.092,0.004,1.214,0.011c0.165,0.27,0.594,1.137,1.289,2.601l1.837,4.082h3.18l-2.342-4.818
			C81.811,12.539,81.331,11.736,80.944,11.303z M77.979,9.747c-0.115,0-0.652-0.002-1.611-0.005
			c-0.96-0.003-1.493-0.005-1.601-0.005V5.014h3.341c1.017,0,1.773,0.181,2.267,0.544c0.494,0.362,0.741,0.927,0.741,1.695
			c0,0.874-0.244,1.508-0.731,1.903C79.898,9.549,79.096,9.747,77.979,9.747z M103.538,7.769c-1.003,2.967-1.547,4.571-1.633,4.813
			c-0.072,0.185-0.226,0.688-0.462,1.508c-0.236,0.821-0.369,1.288-0.398,1.402c-0.466-1.62-0.763-2.597-0.892-2.931l-3.33-9.646
			h-2.997l5.726,15.615h2.943l5.651-15.615h-2.965C105.088,3.184,104.54,4.803,103.538,7.769z M121.491,2.904l-5.79,15.626h3.04
			l1.568-4.413h5.511l1.558,4.413h2.986L124.66,2.904H121.491z M121.04,11.964l2.052-6.353c0.036,0.135,0.698,2.253,1.987,6.353
			H121.04z M151.803,4.796c-0.784-0.629-1.721-1.1-2.809-1.412c-1.089-0.313-2.32-0.469-3.695-0.469h-4.555V18.53h4.823
			c2.714,0,4.838-0.68,6.37-2.041c1.533-1.361,2.299-3.302,2.299-5.825c0-1.3-0.209-2.446-0.628-3.438
			C153.189,6.234,152.587,5.424,151.803,4.796z M149.842,14.815c-0.938,0.935-2.306,1.402-4.104,1.402h-2.084V5.238h1.773
			c1.948,0,3.405,0.435,4.372,1.306c0.967,0.871,1.45,2.265,1.45,4.184C151.25,12.518,150.781,13.881,149.842,14.815z
			 M172.468,2.904h-3.169l-5.79,15.626h3.04l1.568-4.413h5.511l1.558,4.413h2.986L172.468,2.904z M168.848,11.964l2.052-6.353
			c0.036,0.135,0.698,2.253,1.987,6.353H168.848z M14.637,7.855l4.614,5.97l-2.545,1.885C14,12.254,9.546,6.284,9.546,6.284
			L0,18.853h35.001L20.682,0L14.637,7.855z"/>
	</g>
</g>
</svg>
